<?xml version="1.0" standalone="no"?>
<!DOCTYPE svg PUBLIC "-//W3C//DTD SVG 20010904//EN"
 "http://www.w3.org/TR/2001/REC-SVG-20010904/DTD/svg10.dtd">
<svg version="1.0" xmlns="http://www.w3.org/2000/svg"
 width="1200.000000pt" height="1200.000000pt" viewBox="0 0 1200.000000 1200.000000"
 preserveAspectRatio="xMidYMid meet">

<g transform="translate(0.000000,1200.000000) scale(0.100000,-0.100000)"
fill="#000000" stroke="none">
<path d="M4605 10629 c-366 -39 -676 -326 -745 -689 -16 -80 -14 -254 4 -337
55 -267 254 -506 511 -612 103 -43 202 -62 325 -62 123 0 222 19 325 62 257
106 456 345 511 612 28 131 18 318 -23 442 -97 300 -392 548 -688 579 -119 13
-141 13 -220 5z m55 -177 c92 -68 105 -209 29 -317 -22 -31 -39 -59 -39 -63 0
-4 20 -47 44 -97 25 -49 75 -154 113 -232 l68 -142 55 -1 c30 0 73 -9 95 -19
46 -20 101 -79 121 -128 8 -18 19 -33 24 -33 12 0 14 -117 2 -122 -4 -1 -23
-29 -41 -60 -19 -31 -47 -66 -62 -77 -57 -43 -164 -64 -207 -42 -9 5 -32 15
-50 22 -37 13 -92 73 -117 126 -13 26 -16 54 -13 104 3 60 8 75 45 128 l41 59
-89 184 c-49 100 -100 203 -113 228 l-25 45 -80 5 c-73 5 -85 9 -138 45 -74
51 -103 101 -103 176 0 70 23 105 62 96 21 -6 26 -14 32 -54 20 -152 184 -207
279 -94 23 27 27 42 27 91 0 50 -5 65 -35 110 -35 53 -41 70 -27 84 11 12 74
-2 102 -22z"/>
<path d="M4853 9471 c-87 -55 -83 -186 8 -226 94 -43 190 8 193 103 2 80 -44
132 -123 139 -34 3 -54 -1 -78 -16z"/>
<path d="M1565 8929 c-334 -36 -626 -280 -724 -604 -153 -509 203 -1041 732
-1094 357 -35 693 151 855 474 113 226 113 524 0 750 -126 252 -387 442 -643
469 -119 13 -141 13 -220 5z m204 -240 c68 -35 115 -82 143 -146 10 -24 23
-43 28 -43 6 0 10 -31 10 -70 0 -38 -4 -70 -9 -70 -5 0 -19 -21 -32 -46 -33
-69 -73 -110 -137 -140 l-57 -27 65 -14 c151 -32 284 -124 340 -236 43 -86 43
-188 0 -274 -53 -107 -168 -191 -307 -227 -77 -20 -231 -21 -306 -1 -137 36
-254 122 -307 228 -26 51 -30 72 -30 137 0 65 4 86 30 137 17 34 53 81 80 107
58 54 168 110 249 127 l56 12 -55 26 c-61 29 -98 63 -141 130 -26 41 -29 53
-29 131 0 84 1 89 39 147 87 135 236 180 370 112z"/>
<path d="M6565 8355 c-257 -79 -315 -90 -495 -90 -85 0 -201 6 -257 14 -91 13
-112 12 -183 -2 -82 -16 -199 -68 -250 -111 -101 -84 -196 -233 -250 -391 -47
-135 -99 -475 -73 -475 27 0 132 -90 149 -129 11 -22 21 -41 24 -41 4 0 12 17
19 38 20 55 89 172 125 210 101 109 245 125 531 62 213 -47 300 -56 365 -37
71 21 204 97 274 156 151 128 280 382 293 576 5 69 2 91 -22 160 -26 80 -48
116 -69 114 -6 0 -87 -25 -181 -54z m168 -206 c-2 -79 -28 -169 -52 -177 -15
-5 -14 3 13 103 9 32 16 81 16 108 0 35 4 47 13 44 8 -3 11 -27 10 -78z m-114
-6 c0 -45 -17 -100 -46 -148 -23 -39 -26 -3 -5 58 12 34 22 76 22 93 0 17 3
34 7 37 16 16 23 4 22 -40z m-169 -36 c0 -38 -23 -77 -34 -59 -4 6 -2 20 4 31
5 11 10 29 10 40 0 12 5 21 10 21 6 0 10 -15 10 -33z"/>
<path d="M5165 8336 c-129 -27 -169 -45 -251 -110 -94 -76 -141 -136 -188
-238 -106 -233 -145 -469 -149 -913 l-2 -270 28 -57 c38 -77 142 -187 225
-237 79 -47 102 -57 102 -43 0 6 -16 16 -35 22 -74 25 -155 129 -191 249 -17
53 -18 239 -3 296 28 104 86 190 166 246 18 13 23 31 33 119 16 152 72 407
101 462 7 14 6 16 -6 12 -30 -12 -15 35 28 83 23 27 60 79 81 115 47 81 151
193 225 242 l53 36 -78 -1 c-44 -1 -106 -7 -139 -13z m-153 -131 c3 -3 -23
-34 -57 -69 -34 -35 -71 -78 -81 -95 -10 -17 -22 -31 -26 -31 -31 0 30 99 97
158 47 42 57 47 67 37z m25 -101 c2 -6 -8 -16 -21 -24 -14 -7 -37 -30 -51 -52
-26 -39 -45 -49 -45 -23 0 14 50 78 80 102 17 14 32 12 37 -3z"/>
<path d="M6926 8222 c-2 -4 -8 -37 -12 -72 -3 -36 -15 -87 -25 -115 -21 -55
-24 -75 -10 -75 24 0 82 252 62 265 -5 3 -12 2 -15 -3z"/>
<path d="M4719 8118 c-41 -56 -82 -145 -119 -261 -31 -99 -36 -127 -21 -127 5
0 17 26 25 58 37 134 83 242 140 325 29 42 31 47 16 47 -5 0 -24 -19 -41 -42z"/>
<path d="M6974 8067 c-11 -39 -25 -80 -29 -91 -6 -14 -5 -18 6 -14 30 10 79
178 52 178 -5 0 -17 -33 -29 -73z"/>
<path d="M4595 8048 c-21 -46 -44 -96 -51 -112 -18 -38 -18 -66 1 -66 8 0 15
7 15 15 0 17 54 159 75 197 17 29 19 48 7 48 -5 0 -26 -37 -47 -82z"/>
<path d="M5635 7256 c-55 -25 -115 -86 -115 -116 0 -30 13 -24 39 18 37 60 77
82 148 82 54 0 64 -3 81 -25 11 -14 23 -43 27 -65 7 -42 25 -55 25 -19 0 55
-23 100 -65 125 -51 29 -75 29 -140 0z"/>
<path d="M6051 7175 c-31 -36 -40 -65 -21 -65 6 0 20 16 31 35 26 43 52 45 89
5 33 -35 40 -37 40 -11 0 25 -55 71 -85 71 -14 0 -35 -14 -54 -35z"/>
<path d="M5692 6898 c-7 -26 -8 -46 -2 -52 6 -6 11 -4 14 5 2 8 9 28 14 46 10
30 7 43 -8 43 -4 0 -12 -19 -18 -42z"/>
<path d="M6070 6903 c0 -10 -3 -35 -6 -55 -10 -58 13 -47 25 12 14 63 14 60
-4 60 -8 0 -15 -8 -15 -17z"/>
<path d="M9185 6890 c-50 -20 -145 -162 -145 -215 0 -31 45 -73 94 -86 22 -6
47 -13 54 -15 7 -2 22 -25 34 -51 17 -38 19 -59 15 -109 -11 -112 -55 -167
-157 -194 l-45 -12 -63 67 c-60 64 -64 67 -99 60 -68 -13 -138 -51 -181 -100
-51 -57 -55 -94 -16 -128 15 -12 32 -26 38 -32 6 -5 37 -27 69 -49 56 -38 58
-38 104 -27 262 64 448 206 500 381 24 82 13 204 -28 311 -40 105 -91 187
-125 199 -14 6 -26 10 -27 9 -1 0 -11 -4 -22 -9z"/>
<path d="M5351 6730 c-63 -35 -67 -38 -57 -47 7 -8 136 58 136 70 0 14 -25 7
-79 -23z"/>
<path d="M5453 6700 c-68 -44 -90 -67 -53 -55 34 11 140 82 133 89 -10 10 -17
8 -80 -34z"/>
<path d="M5575 6680 c-28 -17 -54 -31 -60 -33 -5 -3 -7 -8 -3 -12 3 -4 30 5
60 20 60 30 73 40 61 48 -5 3 -31 -7 -58 -23z"/>
<path d="M5991 6663 c-24 -15 -39 -29 -32 -31 14 -5 101 39 101 50 0 14 -25 7
-69 -19z"/>
<path d="M9593 6670 c-39 -24 -53 -48 -53 -95 0 -91 98 -144 177 -95 65 39 80
122 30 167 -52 48 -102 55 -154 23z"/>
<path d="M9925 6675 c-47 -24 -65 -52 -65 -102 0 -38 5 -50 34 -79 31 -31 40
-34 91 -34 69 0 108 21 131 68 49 104 -80 203 -191 147z"/>
<path d="M6058 6652 c-46 -28 -34 -46 12 -20 40 23 52 39 28 37 -7 0 -25 -8
-40 -17z"/>
<path d="M6133 6633 c-32 -16 -44 -33 -23 -33 18 0 70 30 70 40 0 13 -9 12
-47 -7z"/>
<path d="M5885 6540 c-11 -5 -35 -9 -52 -9 -48 -1 -40 -21 8 -21 42 0 79 14
79 30 0 12 -8 12 -35 0z"/>
<path d="M5514 6476 c-16 -42 48 -145 120 -193 38 -26 59 -33 98 -33 60 0 165
42 216 87 34 30 36 34 19 47 -9 7 -67 21 -128 30 -93 15 -177 35 -302 72 -10
3 -20 -1 -23 -10z m94 -40 c23 -8 81 -22 129 -31 48 -9 114 -22 146 -28 l59
-13 -40 -28 c-22 -15 -69 -37 -104 -47 -74 -24 -116 -16 -169 29 -31 25 -89
107 -89 124 0 12 22 10 68 -6z"/>
<path d="M4680 5870 c-231 -47 -351 -75 -435 -99 -217 -63 -303 -92 -385 -127
-47 -20 -107 -45 -135 -56 -65 -26 -209 -120 -263 -171 -50 -48 -75 -93 -102
-180 -22 -73 -65 -246 -74 -299 l-7 -38 -284 0 c-278 0 -286 -1 -337 -24 -54
-24 -79 -47 -113 -101 -11 -18 4 -6 36 28 56 58 80 68 120 47 29 -16 49 -64
49 -118 0 -64 -52 -171 -130 -267 -102 -125 -100 -120 -100 -287 l0 -147 33
-5 c17 -3 53 -7 80 -10 62 -7 107 -31 107 -57 0 -11 -23 -58 -51 -104 -58 -94
-58 -115 -4 -115 19 0 53 -8 75 -17 40 -18 52 -33 26 -33 -8 0 -17 -8 -20 -18
-12 -36 -84 -93 -162 -127 l-79 -35 80 -1 c44 0 74 -3 68 -6 -7 -2 -13 -13
-13 -24 0 -19 -16 -19 -647 -19 -655 0 -873 -6 -873 -22 0 -6 305 -6 757 -2
l756 7 -6 -24 c-4 -13 -10 -40 -13 -60 -6 -35 -5 -37 37 -54 33 -14 77 -20
172 -23 l127 -4 0 -464 0 -464 -1110 0 -1111 0 3 -152 3 -153 155 -3 155 -2 0
-433 c0 -342 3 -440 14 -471 20 -59 89 -122 152 -140 47 -14 518 -16 4779 -16
4261 0 4732 2 4779 16 63 18 132 81 152 140 11 31 14 130 14 471 l0 433 131 0
c177 0 174 -3 174 160 0 105 -3 125 -17 136 -15 11 -125 13 -558 14 l-541 0
-12 -33 c-7 -17 -23 -44 -37 -59 l-24 -28 -2624 0 c-2384 0 -2625 1 -2631 16
-3 9 -6 56 -6 105 l0 89 219 0 220 0 6 58 c14 127 61 229 117 258 l32 16 -85
33 c-204 79 -263 109 -301 151 -15 18 -16 30 -3 159 46 467 48 1051 5 1285
-17 88 -39 180 -101 420 -159 619 -210 880 -195 1005 3 30 3 54 -1 54 -5 -1
-24 -5 -43 -9z m-1157 -3225 l57 -16 0 -139 0 -140 -130 0 -130 0 0 179 0 180
73 -24 c39 -13 98 -31 130 -40z"/>
<path d="M5500 5800 c0 -17 15 -60 34 -97 154 -308 266 -1263 313 -2681 l6
-193 36 -19 c20 -10 68 -44 106 -74 39 -31 102 -80 140 -111 133 -104 164
-130 185 -158 21 -27 22 -27 149 -27 l128 0 26 73 c14 39 30 88 36 107 6 19
47 149 92 287 l81 253 -45 44 c-76 73 -77 83 -153 921 -19 215 -44 467 -55
560 -11 94 -24 206 -29 250 -5 44 -18 127 -30 184 -47 223 -80 273 -256 387
-86 56 -304 164 -389 194 -27 9 -108 40 -180 67 -71 27 -145 53 -162 56 -31 6
-33 5 -33 -23z"/>
<path d="M1728 3271 c-295 -9 -540 -19 -544 -24 -4 -4 -5 -10 -2 -13 4 -3 251
1 550 10 750 22 878 27 878 37 0 12 -237 9 -882 -10z"/>
<path d="M1270 2762 c0 -15 47 -19 580 -47 261 -14 510 -28 553 -31 62 -5 77
-3 77 8 0 12 -76 18 -427 36 -236 12 -486 25 -558 28 -71 2 -151 7 -177 10
-30 4 -48 2 -48 -4z"/>
<path d="M2400 2633 c-19 -2 -177 -28 -350 -58 -173 -29 -403 -68 -510 -85
-181 -30 -222 -41 -208 -55 3 -3 124 15 269 39 145 25 396 68 558 96 162 27
299 54 305 60 10 10 6 11 -64 3z"/>
</g>
</svg>
