<?xml version="1.0" standalone="no"?>
<!DOCTYPE svg PUBLIC "-//W3C//DTD SVG 20010904//EN"
 "http://www.w3.org/TR/2001/REC-SVG-20010904/DTD/svg10.dtd">
<svg version="1.0" xmlns="http://www.w3.org/2000/svg"
 width="1200.000000pt" height="1200.000000pt" viewBox="0 0 1200.000000 1200.000000"
 preserveAspectRatio="xMidYMid meet">

<g transform="translate(0.000000,1200.000000) scale(0.100000,-0.100000)"
fill="#000000" stroke="none">
<path d="M6285 7391 c-93 -6 -89 -12 20 -26 72 -10 199 -52 275 -91 80 -41
189 -136 253 -220 88 -118 155 -298 183 -493 14 -99 19 -115 53 -151 26 -27
72 -141 78 -191 3 -27 10 -49 14 -49 5 0 9 -47 9 -105 0 -58 -4 -105 -9 -105
-5 0 -11 -21 -15 -47 -14 -106 -95 -228 -183 -278 -61 -34 -107 -33 -167 6
-27 16 -50 29 -51 27 -1 -2 -13 -28 -26 -58 -12 -30 -27 -62 -34 -70 -27 -36
-32 -66 -23 -140 22 -195 52 -411 59 -421 5 -9 50 -9 180 -1 173 10 299 7 299
-8 0 -4 24 -14 53 -20 71 -17 198 -75 282 -129 160 -104 348 -337 432 -536 12
-27 47 -109 79 -181 56 -127 59 -131 83 -123 15 5 71 22 126 39 130 39 187 73
282 167 131 129 183 252 183 435 0 100 -2 113 -29 166 -43 85 -133 163 -294
254 -229 130 -379 257 -444 374 -36 65 -38 74 -38 154 1 84 1 86 75 245 67
146 74 166 74 225 0 113 -59 199 -179 258 -57 29 -317 132 -331 132 -4 0 -35
21 -71 46 -122 87 -188 199 -228 389 -31 148 -39 172 -81 260 -42 89 -56 104
-129 148 -91 55 -174 85 -282 102 -113 18 -348 26 -478 16z"/>
<path d="M7110 7319 c0 -6 15 -29 34 -52 74 -91 118 -190 131 -292 9 -66 14
-85 26 -85 15 0 10 50 -12 141 -26 101 -62 176 -120 247 -42 51 -59 63 -59 41z"/>
<path d="M7250 7254 c0 -3 11 -38 25 -77 13 -40 29 -91 35 -114 6 -24 16 -43
22 -43 17 0 0 82 -33 163 -16 40 -29 73 -29 75 0 1 -4 2 -10 2 -5 0 -10 -3
-10 -6z"/>
<path d="M5998 7200 c-199 -23 -372 -116 -482 -259 -112 -146 -198 -411 -195
-605 0 -44 2 -48 12 -32 7 10 29 39 49 65 70 86 188 243 188 249 0 4 16 29 35
56 l34 48 39 -78 c54 -110 190 -329 199 -320 2 2 -7 28 -21 57 -31 66 -105
301 -90 286 3 -2 58 -54 122 -113 64 -60 139 -130 166 -156 l50 -46 -39 -11
c-76 -21 -152 -77 -132 -97 7 -7 24 0 87 36 24 14 53 20 92 20 52 0 65 -5 140
-53 46 -29 97 -60 113 -69 17 -8 66 -37 110 -64 44 -27 92 -55 108 -61 l27
-13 0 63 c0 129 58 286 129 350 23 21 57 45 77 54 22 11 33 22 30 32 -3 9 -8
36 -12 61 -7 48 -44 176 -64 225 -27 64 -116 183 -175 232 -134 114 -366 169
-597 143z"/>
<path d="M5260 7010 c-271 -138 -262 -132 -302 -191 -43 -62 -63 -141 -53
-206 3 -24 24 -85 44 -136 21 -51 42 -106 45 -123 10 -47 -12 -118 -70 -229
-30 -56 -61 -132 -71 -173 -15 -64 -15 -83 -4 -159 13 -91 34 -142 80 -195 50
-58 55 -76 55 -190 l0 -107 -62 -128 c-75 -154 -101 -251 -109 -398 -5 -108
-5 -112 35 -230 37 -110 39 -126 35 -200 -3 -52 0 -91 8 -110 l12 -30 14 50
c72 252 111 338 197 441 46 55 129 97 232 119 95 20 148 20 140 -1 -9 -24 27
-141 68 -219 60 -114 188 -229 336 -301 92 -44 329 -94 451 -94 58 0 90 4 194
25 28 6 139 52 200 82 70 35 143 89 187 137 20 23 37 35 38 28 0 -27 84 -190
136 -265 30 -43 54 -81 54 -83 0 -3 17 -31 39 -63 131 -198 322 -631 324 -736
0 -29 -6 -63 -15 -80 -32 -58 -114 -149 -182 -201 -67 -51 -259 -144 -425
-204 -42 -15 -112 -42 -156 -60 -44 -18 -123 -47 -176 -65 -90 -30 -98 -31
-145 -19 -84 21 -104 32 -160 89 -77 76 -126 193 -137 320 -1 19 -8 30 -17 30
-26 0 -24 -84 5 -170 27 -83 29 -78 -30 -135 -57 -56 -220 -89 -440 -89 -71 0
-84 3 -120 27 -22 15 -44 37 -50 48 -5 11 -20 34 -33 51 -12 18 -35 58 -50 90
-24 53 -27 70 -30 208 -4 174 8 248 62 382 27 65 33 90 25 100 -20 23 -30 14
-63 -59 -55 -123 -71 -211 -71 -393 0 -140 3 -169 23 -232 13 -39 42 -98 64
-130 77 -109 95 -122 178 -128 39 -3 99 -21 310 -95 51 -18 160 -60 195 -75
17 -7 81 -30 144 -52 98 -32 117 -42 130 -67 9 -16 31 -45 49 -63 17 -19 32
-39 32 -45 0 -6 19 -44 42 -84 29 -51 48 -74 61 -74 18 0 18 2 -4 37 -27 45
-209 391 -209 397 0 2 15 8 33 11 17 4 102 33 187 65 85 32 166 61 180 65 21
6 135 51 345 137 74 30 246 118 275 140 80 61 151 145 192 225 l42 84 -33 102
c-72 226 -212 519 -337 709 -27 40 -51 78 -53 83 -2 6 -21 35 -41 65 -46 68
-65 105 -96 186 -19 51 -21 65 -10 71 36 21 178 365 159 384 -5 5 -35 -56 -72
-145 -69 -169 -82 -191 -174 -285 -89 -92 -205 -162 -340 -208 -76 -26 -94
-28 -237 -28 -252 0 -329 20 -559 144 -14 8 -59 47 -99 87 -77 76 -94 107
-147 262 l-32 92 47 0 c26 0 60 4 76 9 16 5 53 14 82 20 28 6 76 16 105 22 28
6 76 18 105 26 l52 14 0 114 0 114 -32 5 c-18 3 -55 8 -83 11 -78 10 -185 66
-252 132 -50 49 -133 161 -133 179 0 2 -6 20 -14 39 l-15 35 -43 -25 c-31 -18
-58 -25 -99 -25 -58 0 -92 18 -158 80 -28 28 -77 130 -97 202 -17 64 -18 247
-3 319 12 55 71 193 87 203 5 3 13 36 17 73 16 152 63 351 107 451 20 44 101
183 134 230 9 12 15 22 13 22 -2 -1 -65 -32 -139 -70z m926 -4205 c27 -47 84
-92 162 -130 l44 -21 -60 -23 c-34 -12 -64 -26 -67 -31 -3 -5 6 -29 20 -54 14
-25 25 -47 25 -50 0 -13 -36 -3 -142 39 -62 24 -144 55 -183 69 -149 52 -245
91 -245 97 0 4 44 10 98 14 138 10 210 35 264 89 24 24 46 44 50 45 4 1 19
-19 34 -44z"/>
<path d="M4958 6903 c-52 -69 -85 -141 -104 -223 -22 -98 -7 -207 36 -258 30
-36 43 -17 16 23 -37 55 -50 141 -32 219 18 74 64 172 107 227 29 36 37 59 21
59 -4 0 -24 -21 -44 -47z"/>
<path d="M4766 6679 c-8 -40 -8 -133 0 -153 13 -34 23 -13 21 47 -1 34 2 79 6
100 6 29 5 37 -6 37 -8 0 -17 -14 -21 -31z"/>
<path d="M6904 6368 c-67 -70 -94 -153 -94 -288 0 -106 10 -152 49 -228 26
-50 85 -102 116 -102 26 0 87 57 113 107 78 145 66 366 -28 490 -32 43 -40 48
-80 51 -40 3 -49 -1 -76 -30z"/>
<path d="M5511 6302 c-43 -21 -76 -65 -67 -88 6 -15 12 -12 44 19 21 21 52 41
70 46 37 11 94 -2 134 -30 48 -34 76 -14 33 23 -55 48 -151 61 -214 30z"/>
<path d="M4814 6108 c-22 -73 -30 -233 -14 -310 12 -63 44 -154 84 -238 13
-28 22 -72 24 -117 4 -61 0 -80 -22 -130 -15 -32 -41 -73 -59 -91 -22 -23 -28
-35 -20 -43 14 -14 64 46 101 121 23 46 27 68 27 135 -1 69 -5 89 -34 150 -93
197 -110 400 -46 558 5 12 2 17 -9 17 -10 0 -21 -18 -32 -52z"/>
<path d="M6066 6041 c-10 -15 5 -40 20 -34 18 7 18 43 0 43 -8 0 -17 -4 -20
-9z"/>
<path d="M5553 5989 c-13 -13 0 -49 16 -49 15 0 20 28 8 44 -10 13 -15 14 -24
5z"/>
<path d="M8098 5898 c-83 -111 -108 -188 -108 -327 0 -96 3 -112 28 -166 29
-60 99 -135 127 -135 23 0 19 5 -39 62 -126 124 -130 335 -11 514 25 37 45 71
45 75 0 18 -18 8 -42 -23z"/>
<path d="M6160 5820 c0 -12 40 -33 48 -25 4 4 -2 13 -12 21 -23 16 -36 18 -36
4z"/>
<path d="M5984 5809 c-8 -14 5 -26 39 -34 37 -10 35 10 -2 30 -21 10 -32 12
-37 4z"/>
<path d="M5610 5750 c0 -5 4 -10 9 -10 6 0 13 5 16 10 3 6 -1 10 -9 10 -9 0
-16 -4 -16 -10z"/>
<path d="M5730 5735 c0 -20 40 -35 95 -35 43 0 66 14 49 30 -5 4 -39 10 -76
14 -58 6 -68 4 -68 -9z"/>
<path d="M8084 5685 c-12 -28 -18 -66 -18 -125 -1 -76 2 -90 28 -133 20 -35
31 -46 39 -38 7 7 6 16 -5 28 -37 43 -49 150 -27 238 15 61 5 79 -17 30z"/>
<path d="M6176 5463 c-82 -43 -242 -56 -349 -28 -71 18 -77 18 -77 2 0 -20
124 -47 215 -47 42 0 105 7 139 16 67 17 129 51 120 65 -7 11 -12 10 -48 -8z"/>
<path d="M4814 5403 c-3 -10 -12 -31 -20 -47 -10 -19 -11 -33 -5 -39 12 -12
51 49 51 81 0 26 -18 30 -26 5z"/>
<path d="M4794 5026 c-51 -112 -68 -301 -40 -457 15 -82 48 -169 65 -169 15 0
15 -2 -16 87 -51 149 -42 417 18 535 21 42 24 58 8 58 -5 0 -21 -24 -35 -54z"/>
<path d="M4663 4883 c-17 -69 28 -344 66 -403 22 -33 20 3 -5 86 -19 67 -27
121 -31 217 -6 123 -15 156 -30 100z"/>
<path d="M8750 4843 c0 -5 7 -33 15 -63 22 -82 30 -215 15 -284 -13 -63 -58
-166 -86 -197 -9 -10 -14 -22 -11 -25 15 -16 38 11 76 88 65 132 72 224 34
411 -10 50 -21 77 -29 77 -8 0 -14 -3 -14 -7z"/>
<path d="M8910 4638 c0 -47 -9 -91 -36 -177 -14 -47 20 -16 40 35 22 58 28
185 9 191 -9 3 -13 -10 -13 -49z"/>
<path d="M403 4104 c-3 -8 22 -88 56 -178 33 -90 61 -166 61 -170 0 -3 27 -77
59 -164 33 -86 88 -233 122 -327 34 -93 88 -240 120 -326 33 -85 59 -160 59
-165 0 -5 19 -56 41 -114 40 -101 64 -167 182 -499 43 -120 62 -159 87 -182
l31 -29 2610 0 c1769 0 2609 3 2609 10 0 6 11 16 25 22 23 10 25 16 25 81 0
55 -4 73 -17 83 -15 11 -184 13 -908 14 l-890 0 -27 88 c-15 48 -81 254 -148
457 -146 452 -197 608 -300 930 -117 368 -148 454 -164 470 -13 13 -250 15
-1821 15 -1623 0 -1806 -2 -1812 -16z m2346 -964 c102 -26 164 -55 207 -98 33
-33 47 -82 23 -82 -6 0 -21 -13 -34 -28 -50 -60 -184 -100 -365 -109 -152 -8
-328 33 -398 93 -37 31 -42 41 -42 78 0 31 6 48 23 63 101 91 390 132 586 83z"/>
<path d="M5966 3744 c-8 -22 13 -49 74 -95 54 -41 91 -56 109 -44 23 14 9 36
-36 59 -27 13 -64 40 -82 60 -38 39 -56 45 -65 20z"/>
<path d="M5903 3554 c-16 -42 105 -81 215 -70 76 8 125 30 120 54 -4 19 -18
19 -98 3 -61 -13 -140 -6 -182 15 -35 18 -47 18 -55 -2z"/>
<path d="M6178 3455 c-3 -3 -32 -10 -64 -15 -60 -10 -92 -30 -79 -50 15 -24
167 11 186 42 4 7 5 16 3 20 -6 9 -38 11 -46 3z"/>
<path d="M10283 3111 c-287 -3 -525 -9 -529 -13 -4 -5 -5 -11 -2 -14 4 -3 343
-2 754 3 583 6 748 11 752 21 4 13 10 13 -975 3z"/>
<path d="M10480 2929 c-305 -9 -585 -18 -622 -18 -54 -1 -68 -4 -68 -16 0 -13
9 -15 48 -11 26 3 347 13 715 23 534 13 667 19 667 30 0 16 -3 16 -740 -8z"/>
<path d="M5700 2583 c1 -13 30 -29 113 -61 62 -24 143 -57 181 -73 46 -20 72
-27 79 -20 12 12 -42 47 -88 57 -16 3 -34 10 -40 14 -8 6 -106 48 -213 91 -31
12 -32 12 -32 -8z"/>
<path d="M9880 2411 c0 -14 54 -19 305 -31 121 -5 372 -17 557 -27 307 -15
363 -15 346 3 -3 3 -105 9 -226 15 -122 5 -377 18 -569 29 -400 23 -413 23
-413 11z"/>
<path d="M10920 2273 c-572 -98 -694 -121 -633 -122 34 -1 194 21 355 49 417
71 431 74 436 88 2 6 0 11 -5 11 -4 -1 -73 -13 -153 -26z"/>
<path d="M7759 2245 c-3 -3 -55 -25 -115 -50 l-109 -45 62 0 c106 0 279 88
193 98 -14 2 -28 0 -31 -3z"/>
</g>
</svg>
